<svg xmlns="http://www.w3.org/2000/svg" xml:space="preserve" width="1024" height="1024" viewBox="0 0 11.378 11.378"><g transform="translate(.005 .005)scale(.5973)"><circle cx="9.525" cy="9.525" r="9.515" style="fill:#3b4252;fill-opacity:1;stroke-width:.0713743"/><g style="fill:#88c0d0;fill-opacity:1"><path d="M174.722 78.08c4.696-4.856 4.856-5.08 4.856-5.08s1.47-.351 1.47 1.182c-3.642 3.707-3.61 3.738-3.61 3.738l6.294-.063s1.31.99-.032 1.725-.096.032-.096.032l-6.198-.032 3.578 3.642s-.064 1.502-1.278 1.31-.032 0-.032 0l-4.911-4.819-3.46 1.944 1.374 1.66s-.223 1.343-1.246 1.12c-1.022-.225 0 0 0 0l-1.82-1.726-.123-7.652 1.815-2.093s1.534-.127 1.342 1.278 0 .001 0 .001l-1.501 1.757zM145.91 63.07c-6.56-1.617-6.703-1.645-6.703-1.645s-1.043-1.094.283-1.865c5.035 1.284 5.046 1.24 5.046 1.24l-3.22-5.407s.197-1.63 1.507-.84.076.066.076.066l3.09 5.374 1.348-4.925s1.33-.7 1.775.446.016.028.016.028l-1.65 6.817 3.374 1.864.745-2.023s1.273-.481 1.593.515l-.575 2.441-6.789 4.024-2.485-.587s-.882-1.261.43-1.802c1.311-.542.003-.001.003-.001l2.13.361zM147.228 95.154c1.862 6.494 1.905 7.017 1.905 7.017s-.43 1.449-1.758.683c-1.392-5.006-1.435-4.995-1.435-4.995l-3.088 5.485s-1.513.64-1.48-.89c.034-1.529.021-.098.021-.098l3.123-5.354-4.942 1.28s-1.27-.804-.497-1.76c.773-.957.016-.028.016-.028l7.233-2.033-.114-4.166-2.572.744s-1.051-.864-.347-1.638c.705-.774 0 0 0 0l2.405-.716 6.868 3.886.728 2.447s-.67 1.367-1.792.5c-1.122-.869.002.003.002.003l-.78-2.312zM158.805 80.498l-1.694-2.394-1.446.994 1.65 2.35c-.555 2.14-1.224 4.393-1.763 6.573 0 0 .407 1.582 1.785.61l1.22-4.789v-.023l2.846 4.903-1.717 6.732s.859 1.13 1.808.407l1.197-4.812 3.411 5.648s1.356.203 1.491-1.107l-3.23-5.603 4.812 1.333s1.355-.407.542-1.695l-6.62-1.852-2.733-4.835 4.767 1.288s1.22-.474.52-1.74z" style="fill:#88c0d0;fill-opacity:1;stroke-width:.264583" transform="translate(-23.795 -7.359)scale(.21397)"/><path d="m156.574 76.089-1.232 2.662 1.582.758 1.215-2.6c2.133-.587 4.42-1.128 6.579-1.748 0 0 1.168-1.14-.36-1.851l-4.761 1.328-.02.011 2.833-4.91 6.692-1.865s.552-1.307-.547-1.77l-4.77 1.36 3.198-5.772s-.499-1.277-1.702-.742l-3.249 5.593-1.241-4.837s-1.028-.972-1.74.374l1.692 6.663-2.83 4.778-1.258-4.774s-1.02-.822-1.768.416z" style="fill:#88c0d0;fill-opacity:1;stroke-width:.264583" transform="translate(-23.795 -7.359)scale(.21397)"/><path d="m152.813 79.44 2.922-.26-.133-1.75-2.86.244c-1.572-1.556-3.182-3.267-4.796-4.829 0 0-1.571-.444-1.425 1.236l3.527 3.463.02.011-5.67-.005-4.955-4.87s-1.408.175-1.26 1.358l3.556 3.455-6.597.109s-.857 1.069.207 1.845l6.467.025-3.572 3.489s-.33 1.376 1.192 1.32l4.93-4.789 5.554.068-3.51 3.473s-.204 1.293 1.242 1.324z" style="fill:#88c0d0;fill-opacity:1;stroke-width:.264583" transform="translate(-23.795 -7.359)scale(.21397)"/><path d="M147.488 62.239s-1.247-.422-1.654.807l-.006 31.565s.234 1.07 1.513.949l27.433-15.84s.763-.769.026-1.719z" style="fill:#88c0d0;fill-opacity:1;stroke-width:.824;stroke-dasharray:none;paint-order:fill markers stroke" transform="translate(-23.795 -7.359)scale(.21397)"/></g></g></svg>